<?xml version="1.0" encoding="UTF-8" standalone="no"?>
<!DOCTYPE svg PUBLIC "-//W3C//DTD SVG 1.1//EN" "http://www.w3.org/Graphics/SVG/1.1/DTD/svg11.dtd">
<svg width="100%" height="100%" viewBox="0 0 1011 1032" version="1.1" xmlns="http://www.w3.org/2000/svg" xmlns:xlink="http://www.w3.org/1999/xlink" xml:space="preserve" xmlns:affinity="https://www.affinity.studio/" style="fill-rule:evenodd;clip-rule:evenodd;stroke-linejoin:round;stroke-miterlimit:2;">
    <rect x="0" y="0" width="1011" height="1032" rx="230" ry="230" fill="#ffffff"/>
    <g transform="matrix(0.095238,-0,-0,-0.095238,-112.15597,1148.894831)">
        <path d="M6374,12053C5755,12024 5167,11891 4578,11647C4387,11567 4007,11374 3829,11267C3622,11140 3322,10932 3188,10821C2815,10512 2519,10216 2304,9938C1841,9342 1502,8630 1330,7891C1159,7157 1132,6432 1250,5730C1275,5580 1332,5333 1377,5177C1481,4818 1700,4310 1900,3960C1994,3797 2215,3465 2335,3307C2719,2803 3227,2337 3764,1997C4428,1577 5127,1340 5969,1248C6131,1230 6670,1230 6851,1248C7187,1281 7553,1340 7742,1393C8301,1548 8814,1789 9335,2143C9972,2576 10610,3264 11051,3995C11181,4210 11352,4549 11428,4744C11553,5066 11571,5116 11616,5272C11731,5667 11779,6014 11788,6510C11797,6973 11767,7306 11676,7760C11540,8437 11253,9118 10843,9734C10437,10345 9853,10917 9256,11290C9057,11414 9016,11437 8814,11537C8299,11794 7729,11962 7151,12027C7028,12041 6587,12067 6557,12063C6551,12062 6469,12058 6374,12053ZM7067,11744C7899,11660 8695,11359 9356,10880C9604,10699 9916,10414 10132,10169C10431,9830 10731,9380 10940,8951C11168,8487 11238,8280 11375,7676C11405,7543 11465,7175 11476,7048C11492,6883 11492,6372 11477,6216C11413,5541 11202,4886 10865,4310C10652,3948 10432,3656 10092,3283C9492,2626 8723,2109 7943,1838C7789,1784 7559,1722 7319,1670C7198,1643 6961,1607 6804,1590C6524,1561 5964,1582 5644,1633C5224,1700 4787,1843 4379,2048C3872,2301 3448,2608 3034,3023C2294,3764 1824,4575 1602,5496C1530,5795 1493,6095 1484,6452C1472,6931 1513,7357 1613,7796C1919,9141 2763,10302 3964,11031C4584,11406 5324,11657 6053,11739C6359,11773 6759,11775 7067,11744Z" style="fill-rule:nonzero;"/>
        <path d="M6216,11168C6173,11160 6062,11136 5969,11115C5877,11094 5768,11069 5728,11060C5687,11051 5553,11005 5429,10957C5304,10910 5160,10856 5108,10837C4847,10741 4523,10582 4459,10517C4398,10456 4261,10241 4235,10164C4222,10126 4211,10076 4211,10052C4210,9999 4167,9855 4126,9775C4096,9716 4049,9666 3950,9592C3883,9541 3798,9442 3764,9376C3751,9350 3715,9257 3686,9171C3624,8992 3549,8829 3488,8740C3465,8706 3399,8617 3340,8542C3282,8467 3218,8375 3198,8337C3100,8149 3061,7866 3107,7683C3130,7594 3216,7417 3324,7234C3385,7131 3416,7093 3545,6962C3628,6879 3698,6802 3701,6793C3712,6760 3685,6715 3606,6635C3535,6561 3511,6521 3539,6521C3545,6521 3571,6526 3597,6532C3623,6539 3647,6541 3650,6538C3654,6535 3644,6500 3628,6461C3595,6379 3581,6241 3601,6191C3612,6162 3613,6161 3633,6180C3658,6202 3655,6205 3688,6132C3736,6024 3794,5976 3945,5920C3991,5903 4023,5881 4079,5825C4158,5744 4244,5696 4328,5685C4369,5679 4388,5683 4448,5711C4540,5754 4555,5749 4559,5672L4562,5612L4604,5607C4660,5599 4670,5591 4689,5545C4698,5523 4718,5495 4734,5483C4751,5472 4772,5444 4782,5423C4800,5386 4800,5382 4783,5337C4759,5275 4677,5194 4522,5078C4442,5017 4381,4962 4349,4920C4256,4799 4111,4635 3991,4515L3870,4395L3865,4325L3859,4256L3778,4190C3733,4155 3646,4080 3583,4024C3516,3964 3448,3914 3415,3899C3385,3886 3283,3860 3189,3843C2927,3794 2877,3778 2711,3692L2655,3664L2695,3607C2777,3492 2970,3275 3154,3092C3547,2700 3907,2437 4405,2178C4626,2062 5122,1859 5182,1859C5196,1859 5240,1931 5376,2184C5847,3057 5935,3230 6024,3455C6135,3737 6159,3897 6150,4292C6146,4454 6136,4598 6122,4704C6062,5151 6045,5482 6074,5639C6097,5770 6136,5843 6358,6179C6570,6499 6700,6642 6812,6679C6859,6694 7029,6687 7287,6658C7513,6633 7544,6626 7587,6585C7614,6559 7727,6407 7843,6241C7877,6191 7865,6156 7801,6123C7763,6103 7743,6100 7691,6104C7587,6111 7520,6150 7445,6245L7418,6279L7321,6269C7260,6263 7190,6263 7137,6269C6895,6297 6917,6303 6879,6202C6839,6093 6623,5791 6561,5755C6525,5735 6523,5727 6555,5719C6615,5702 6683,5714 6833,5764C7023,5827 7299,5905 7395,5923C7509,5944 7588,5914 7630,5835C7638,5819 7668,5741 7696,5662C7724,5583 7766,5467 7790,5406C7837,5282 7845,5205 7818,5139C7799,5094 7786,5094 7764,5137C7754,5156 7700,5219 7643,5276C7570,5351 7532,5399 7513,5442C7497,5475 7480,5502 7475,5502C7455,5502 6934,5366 6876,5346C6690,5281 6755,5264 7040,5302C7227,5328 7382,5330 7444,5308C7510,5285 7563,5237 7599,5169C7688,5001 7688,4842 7599,4632L7565,4552L7557,4667C7546,4815 7531,4869 7494,4897C7467,4917 7447,4920 7310,4922C7140,4926 6973,4914 6969,4899C6965,4884 7018,4873 7189,4857C7388,4838 7428,4823 7467,4750C7540,4615 7557,4445 7508,4347C7453,4238 7341,4126 7286,4127C7263,4127 7234,4165 7235,4194C7235,4229 7281,4317 7326,4368C7375,4424 7409,4480 7400,4489C7396,4493 7380,4489 7364,4480C7321,4456 7241,4434 7148,4420C7031,4402 7027,4398 7043,4305C7050,4264 7073,4186 7094,4134C7202,3859 7208,3838 7208,3701C7207,3538 7192,3499 7060,3323C6906,3116 6843,2968 6804,2720C6792,2646 6761,2472 6688,2074C6671,1981 6655,1892 6652,1874C6648,1857 6639,1806 6630,1760C6621,1715 6616,1676 6619,1673C6626,1665 6905,1697 7061,1723C7366,1774 7703,1858 7922,1937C8102,2002 8393,2130 8517,2199C8654,2276 8643,2248 8622,2457C8616,2523 8610,2617 8610,2665C8610,2745 8606,2760 8564,2854C8487,3024 8479,3057 8479,3192C8480,3338 8503,3431 8578,3586C8606,3644 8639,3731 8652,3780C8687,3914 8729,3990 8769,3990C8780,3990 8817,3964 8852,3932C8905,3883 8920,3875 8954,3875C9000,3875 9041,3884 9041,3895C9041,3899 8999,3928 8949,3960C8768,4072 8146,4556 8060,4651C8024,4692 7991,4751 7991,4776C7991,4782 8022,4770 8060,4750C8106,4726 8137,4716 8152,4721C8211,4738 8221,4795 8178,4872C8131,4959 8132,4959 8269,4910C8309,4895 8354,4883 8369,4883C8406,4883 8445,4905 8460,4935C8475,4966 8472,4968 8384,4987C8320,5001 8231,5040 8198,5069C8175,5089 8174,5117 8197,5140C8223,5166 8274,5154 8408,5093C8522,5040 8548,5032 8865,4956C9042,4913 9451,4782 9529,4743C9606,4705 9628,4683 9727,4543C9842,4381 9853,4370 9876,4390C9897,4407 9940,4492 9965,4565C9982,4614 9983,4621 9968,4636C9960,4644 9949,4652 9945,4652C9941,4652 9885,4661 9819,4672C9698,4693 9619,4727 9540,4791C9503,4821 9507,4848 9556,4906C9615,4978 9656,4992 9818,4996C9895,4998 10002,4995 10054,4991C10106,4986 10159,4984 10171,4986C10201,4990 10259,5043 10259,5065C10259,5075 10232,5111 10200,5146C10168,5181 10135,5225 10127,5243C10119,5262 10110,5336 10106,5408C10097,5558 10096,5560 10003,5610C9911,5659 9907,5668 9923,5800C9934,5887 9934,5928 9924,5992C9901,6142 9912,6206 9960,6206C9985,6206 10054,6136 10106,6056C10184,5938 10339,5789 10360,5810C10364,5814 10370,5839 10375,5867C10396,5993 10380,6047 10307,6093C10281,6109 10255,6129 10248,6137C10225,6165 10205,6346 10197,6599C10190,6836 10189,6854 10166,6890C10153,6911 10126,6943 10106,6961C10038,7020 10013,7028 9852,7034C9770,7038 9700,7044 9695,7049C9690,7054 9685,7094 9683,7138C9680,7182 9673,7222 9667,7226C9660,7231 9641,7234 9623,7234C9556,7235 9545,7243 9545,7294L9545,7340L9442,7337C9346,7334 9340,7333 9336,7311C9333,7290 9338,7288 9399,7285C9439,7283 9466,7277 9468,7269C9472,7258 9431,7255 9286,7255C9183,7255 9073,7252 9043,7249L8988,7242L8988,6983L9127,6981C9204,6981 9427,6979 9623,6978C9923,6976 9987,6973 10020,6958C10041,6949 10059,6938 10059,6933C10059,6922 8934,6922 8917,6933C8908,6939 8904,6983 8904,7092L8904,7242L8871,7249C8853,7253 8723,7256 8583,7256L8328,7256L8300,7292L8272,7329L7886,7329L7886,7560L7969,7560C8080,7560 8101,7549 8123,7482C8153,7390 8165,7374 8219,7355C8246,7346 8283,7331 8300,7323C8326,7310 8389,7308 8642,7310L8951,7313L8955,7364C8959,7440 8940,7542 8909,7608L8881,7667L8913,7768C8931,7824 8952,7908 8961,7954C8970,8000 8981,8050 8984,8064C8988,8078 8992,8187 8993,8306C8995,8505 8997,8528 9024,8621C9039,8675 9066,8756 9083,8799C9146,8960 9162,9123 9126,9238C9105,9306 8887,9676 8791,9807C8715,9910 8588,10034 8511,10080C8376,10161 8336,10194 8271,10274C8157,10417 7953,10596 7704,10776C7504,10920 7465,10935 7025,11044C6814,11097 6608,11147 6568,11157C6467,11180 6312,11185 6216,11168ZM6027,10326C5862,10275 5551,10150 5298,10033C4943,9869 4879,9828 4602,9588C4365,9383 4191,9188 3927,8832C3879,8766 3837,8717 3835,8724C3829,8742 3954,9014 4018,9122C4075,9219 4181,9357 4304,9497C4376,9579 4396,9608 4379,9608C4354,9608 4198,9550 4108,9507L4010,9461L4034,9503C4047,9526 4087,9573 4122,9608C4190,9673 4284,9724 4510,9818C4568,9842 4676,9900 4751,9947C4915,10049 5005,10089 5261,10173C5553,10270 5815,10334 5980,10350C6014,10353 6045,10357 6047,10360C6050,10362 6073,10363 6100,10363C6144,10363 6137,10359 6027,10326ZM7466,10069C7687,10048 7833,10028 7907,10007C7975,9988 8054,9927 8191,9791C8323,9660 8353,9621 8283,9673C8150,9771 7863,9895 7623,9958C7504,9989 7187,10083 7172,10091C7162,10096 7172,10098 7198,10095C7221,10092 7341,10081 7466,10069ZM6324,9550C6282,9531 6157,9465 6046,9404C5934,9343 5815,9281 5780,9266C5719,9239 5718,9239 5738,9262C5792,9323 5924,9414 6036,9468C6170,9533 6319,9586 6368,9585C6395,9585 6388,9580 6324,9550ZM7080,9434C7238,9407 7230,9400 7035,9399C6773,9397 6690,9385 6505,9322C6418,9293 6319,9256 6284,9240C6250,9223 6143,9183 6048,9151C5855,9085 5784,9055 5719,9011C5643,8960 5642,8962 5712,9035C5837,9164 5997,9256 6224,9330C6421,9394 6564,9428 6746,9454C6798,9462 6982,9450 7080,9434ZM5051,9404C5051,9401 5035,9391 5016,9379C4963,9348 4857,9246 4771,9141C4727,9089 4682,9035 4671,9021C4606,8944 4320,8553 4245,8441C4197,8368 4108,8222 4048,8116C3987,8010 3938,7933 3938,7944C3938,8002 4030,8240 4128,8436C4269,8717 4426,8930 4658,9157C4796,9291 4874,9347 4977,9383C5053,9410 5051,9410 5051,9404ZM6237,9183C6130,9144 6123,9143 6177,9171C6232,9199 6252,9206 6284,9207C6296,9207 6275,9197 6237,9183ZM6689,9181C6612,9165 6508,9133 6305,9066C6230,9041 6144,9017 6114,9011C6064,9002 6060,9003 6069,9019C6092,9062 6320,9155 6468,9181C6511,9189 6594,9196 6652,9196L6757,9196L6689,9181ZM7967,9071C7981,9043 7997,8978 8007,8909C8016,8846 8028,8789 8033,8784C8044,8772 8080,8849 8091,8907C8095,8929 8100,8945 8103,8942C8106,8939 8122,8884 8138,8818C8165,8714 8177,8631 8197,8416C8204,8343 8208,8332 8225,8346C8237,8356 8243,8342 8256,8274C8272,8194 8272,8187 8251,8109C8222,7999 8229,7907 8280,7749C8323,7612 8333,7496 8305,7439C8292,7412 8284,7408 8248,7408C8206,7408 8206,7408 8197,7455C8179,7557 8169,7581 8138,7597C8095,7619 7898,7619 7869,7597C7852,7584 7797,7582 7559,7581C7375,7581 7257,7577 7236,7569C7199,7557 7187,7539 7156,7456C7134,7398 7127,7391 7073,7375C7021,7359 6999,7317 6995,7225L6991,7143L6818,7133C6664,7124 6643,7120 6623,7100C6599,7077 6586,6986 6598,6936L6605,6909L6885,6909C7215,6909 7203,6905 7203,7011C7203,7092 7192,7115 7150,7124C7099,7136 7126,7151 7197,7151C7241,7151 7268,7146 7276,7136C7284,7126 7287,7080 7285,6997L7282,6872L6508,6862L6488,6837C6472,6817 6468,6794 6467,6711C6466,6547 6453,6446 6426,6391C6395,6329 6186,6049 6150,6020C6135,6008 6099,5995 6071,5992C6043,5988 6011,5978 6000,5970C5981,5955 5982,5953 6024,5909C6080,5852 6081,5831 6029,5676L5990,5562L5943,5547C5917,5539 5835,5517 5760,5497C5630,5462 5585,5442 5615,5432C5622,5429 5674,5403 5730,5374C5787,5345 5863,5310 5901,5297L5969,5274L5966,5233C5961,5167 5961,5166 5880,5166C5840,5166 5807,5162 5807,5157C5807,5144 5911,5048 5956,5021L5995,4997L5998,4764C5999,4636 5998,4519 5995,4505C5989,4480 5984,4478 5926,4480C5851,4482 5760,4507 5679,4547C5588,4593 5481,4686 5281,4890C4876,5305 4784,5492 4635,6206C4550,6609 4510,6777 4467,6899C4440,6977 4436,7015 4427,7243L4422,7361L4468,7413C4526,7478 4531,7488 4573,7614C4592,7671 4618,7731 4630,7748C4642,7765 4689,7797 4738,7822C4835,7872 4956,7949 4956,7962C4956,7966 4945,7967 4932,7964C4873,7950 4809,7941 4804,7946C4797,7954 4839,7982 4988,8069C5054,8108 5129,8157 5154,8178C5179,8199 5210,8224 5222,8234C5262,8266 5232,8265 5156,8233C5115,8215 5057,8194 5029,8185L4976,8170L5101,8293C5191,8381 5250,8451 5312,8542C5437,8727 5448,8735 5372,8588C5310,8470 5291,8421 5308,8421C5311,8421 5331,8432 5353,8445C5420,8487 5443,8492 5566,8500C5679,8506 5805,8528 6022,8579C6095,8596 6134,8600 6195,8595C6422,8576 6442,8576 6510,8593C6548,8603 6602,8625 6631,8642C6802,8745 7198,8919 7403,8982C7508,9015 7634,9057 7684,9077C7734,9097 7776,9111 7779,9109C7781,9106 7777,9083 7770,9056C7763,9030 7759,9006 7763,9002C7772,8993 7834,9035 7880,9082C7903,9105 7926,9123 7932,9122C7938,9120 7954,9097 7967,9071ZM3978,7351C4014,7256 4040,7176 4037,7173C4034,7170 4018,7178 4002,7190C3966,7216 3959,7212 3959,7164C3959,7122 3968,7102 4022,7030C4044,7001 4078,6941 4099,6896C4119,6851 4148,6798 4164,6777C4201,6730 4266,6692 4325,6684C4351,6681 4375,6674 4379,6670C4383,6666 4397,6634 4410,6599C4437,6531 4464,6481 4500,6431C4543,6372 4542,6356 4495,6332C4425,6296 4402,6302 4271,6390C4127,6487 4097,6515 4030,6614C3926,6766 3880,6913 3882,7082C3884,7288 3898,7565 3906,7544C3910,7533 3943,7446 3978,7351ZM7980,7135L7980,7035L7917,7035L7917,7125C7917,7208 7919,7215 7941,7224C7954,7229 7968,7233 7972,7234C7976,7234 7980,7190 7980,7135ZM8442,6785C8284,6695 8184,6600 8074,6434C7991,6311 7990,6309 8002,6364C8023,6455 8074,6532 8197,6654L8316,6773L8135,6773C7934,6773 7916,6775 7898,6805C7886,6825 7891,6825 8198,6825L8510,6825L8442,6785ZM9173,6799C9488,6739 9722,6516 9802,6200C9836,6065 9838,5872 9807,5748C9762,5570 9646,5389 9512,5287C9429,5224 9279,5152 9182,5128C9074,5101 8863,5103 8752,5133C8643,5162 8495,5235 8416,5299C8286,5405 8179,5573 8137,5738C8099,5889 8113,6098 8171,6256C8313,6642 8752,6879 9173,6799ZM4907,5188C4934,5141 5049,5009 5207,4841C5286,4757 5392,4641 5444,4584C5496,4527 5586,4440 5644,4390C5702,4340 5821,4227 5909,4137C6064,3980 6069,3973 6069,3931C6069,3830 6000,3570 5925,3386C5834,3162 5766,3058 5617,2914L5531,2830L5509,2857C5496,2872 5457,2927 5421,2978C5385,3029 5326,3105 5289,3147C5199,3248 5178,3292 5111,3507C5037,3742 5004,3819 4908,3976C4796,4159 4767,4226 4767,4307C4767,4344 4779,4423 4792,4485C4829,4647 4871,5017 4872,5195C4872,5227 4885,5225 4907,5188ZM7406,3268C7321,3086 7273,2952 7207,2718C7070,2232 6975,1969 6942,1989C6928,1998 6888,2114 6871,2197C6853,2285 6853,2453 6872,2535C6895,2634 6931,2732 6982,2835C7009,2890 7042,2962 7056,2996C7078,3053 7089,3064 7202,3150C7269,3201 7350,3266 7382,3295C7413,3325 7440,3349 7442,3349C7443,3349 7427,3313 7406,3268Z" style="fill-rule:nonzero;"/>
        <path d="M7403,7748C7196,7723 7037,7680 6878,7608C6715,7534 6668,7503 6668,7471C6668,7417 6730,7396 6794,7429C6810,7437 6855,7466 6892,7492C7006,7572 7081,7601 7279,7640C7461,7677 7563,7685 7747,7677C7837,7673 7871,7684 7846,7708C7809,7746 7561,7768 7403,7748Z" style="fill-rule:nonzero;"/>
        <path d="M5161,7740C5071,7716 4872,7613 4872,7591C4872,7587 4918,7600 4974,7620C5140,7680 5158,7678 5381,7567C5484,7517 5566,7473 5563,7471C5561,7469 5536,7464 5507,7460C5227,7427 5158,7402 5044,7297C4988,7245 4971,7235 4940,7235C4914,7235 4903,7230 4906,7221C4913,7199 4978,7161 5021,7154C5045,7150 5074,7135 5096,7113C5139,7072 5200,7039 5254,7029L5294,7022L5256,7078C5236,7109 5219,7141 5219,7148C5219,7166 5382,7245 5420,7245C5444,7245 5450,7240 5450,7220C5450,7186 5490,7129 5532,7105C5576,7079 5653,7078 5698,7101C5716,7111 5746,7137 5764,7160C5797,7202 5797,7202 5833,7187C5853,7178 5881,7172 5896,7172C5931,7172 5961,7156 6002,7117C6022,7098 6040,7089 6051,7093C6073,7102 6090,7153 6090,7212C6090,7257 6086,7263 6026,7319L5962,7378L6008,7391C6059,7406 6101,7440 6101,7466C6101,7509 6044,7530 5544,7676C5329,7739 5223,7756 5161,7740ZM5575,7370C5587,7364 5585,7361 5565,7357C5311,7307 5243,7299 5255,7319C5267,7338 5347,7373 5396,7381C5448,7390 5550,7384 5575,7370Z" style="fill-rule:nonzero;"/>
        <path d="M5649,7040C5617,7033 5555,7026 5510,7026C5466,7025 5427,7020 5424,7016C5418,7006 5462,6983 5488,6983C5502,6983 5502,6980 5492,6967C5480,6953 5485,6951 5524,6951L5570,6951L5518,6907L5581,6914C5676,6923 5842,7014 5822,7046C5814,7060 5720,7056 5649,7040Z" style="fill-rule:nonzero;"/>
        <path d="M8899,6736C8893,6734 8853,6725 8810,6715C8608,6670 8417,6531 8301,6347C8110,6046 8162,5637 8422,5392C8584,5239 8782,5168 9019,5179C9276,5190 9490,5313 9637,5532C9723,5661 9756,5764 9762,5928C9767,6033 9764,6068 9745,6142C9674,6423 9468,6646 9213,6715C9159,6730 8928,6745 8899,6736ZM9167,6650C9352,6604 9517,6470 9602,6297C9665,6169 9685,6069 9678,5917C9670,5722 9600,5567 9465,5440C9327,5312 9169,5250 8977,5250C8798,5250 8618,5317 8489,5431C8328,5575 8235,5839 8273,6041C8307,6222 8364,6337 8479,6453C8583,6557 8697,6620 8841,6653C8917,6670 9094,6669 9167,6650Z" style="fill-rule:nonzero;"/>
        <path d="M8914,6579C8911,6577 8890,6572 8867,6569C8844,6565 8781,6541 8728,6515C8592,6448 8483,6341 8423,6216C8370,6104 8353,6021 8361,5903C8372,5740 8431,5618 8558,5498C8672,5390 8783,5345 8951,5337C9210,5324 9425,5451 9540,5685C9597,5801 9612,5875 9604,6006C9595,6172 9538,6298 9418,6416C9341,6492 9233,6552 9137,6572C9084,6583 8923,6588 8914,6579ZM8936,6384C8972,6365 8962,6327 8915,6306C8893,6295 8861,6273 8845,6257C8806,6216 8752,6214 8734,6253C8718,6289 8744,6345 8791,6374C8828,6396 8903,6401 8936,6384ZM9131,6154C9204,6109 9248,6012 9235,5923C9218,5812 9145,5733 9057,5733C8945,5733 8871,5820 8871,5954C8872,6052 8908,6120 8983,6162C9016,6180 9095,6176 9131,6154Z" style="fill-rule:nonzero;"/>
        <path d="M8453,4716C8453,4710 8492,4685 8705,4554C8748,4528 8898,4426 9039,4327C9247,4182 9306,4146 9350,4136C9445,4115 9495,4144 9430,4182C9378,4213 9334,4263 9264,4371C9201,4468 9192,4477 9132,4505C9096,4522 9062,4536 9056,4536C9050,4536 8988,4555 8918,4578C8848,4601 8727,4639 8650,4662C8573,4686 8497,4710 8481,4715C8465,4719 8453,4720 8453,4716Z" style="fill-rule:nonzero;"/>
        <path d="M10235,4381C10214,4336 10187,4259 10175,4211C10131,4039 10080,3936 9983,3820C9958,3789 9886,3733 9793,3672C9573,3526 9380,3365 9290,3252L9257,3211L9320,3214L9382,3218L9388,3087C9395,2952 9411,2865 9434,2846C9443,2839 9474,2860 9545,2921C9674,3032 10035,3388 10105,3472C10134,3508 10206,3595 10263,3665L10367,3792L10338,3946C10317,4057 10307,4150 10302,4278C10298,4392 10291,4457 10284,4459C10277,4461 10255,4426 10235,4381Z" style="fill-rule:nonzero;"/>
        <g transform="matrix(24.979546,-0,-0,-24.979546,-809.862495,25074.686006)">
            <text x="151px" y="682px" style="font-family:'HelveticaNeue-Medium', 'Helvetica Neue', sans-serif;font-weight:500;font-size:150.773px;fill:rgb(255,253,253);stroke:black;stroke-width:5.04px;">T<tspan x="222.316px 303.13px 350.473px " y="682px 682px 682px ">aro</tspan></text>
        </g>
    </g>
</svg>
